<?xml version="1.0" encoding="UTF-8"?>
<svg width="131px" height="40px" viewBox="0 0 131 40" version="1.1" xmlns="http://www.w3.org/2000/svg" xmlns:xlink="http://www.w3.org/1999/xlink">
    <!-- Generator: Sketch 59.1 (86144) - https://sketch.com -->
    <title>Logo 2</title>
    <desc>Created with Sketch.</desc>
    <defs>
        <linearGradient x1="50%" y1="0%" x2="50%" y2="100%" id="linearGradient-1">
            <stop stop-color="#FF7B00" offset="0%"></stop>
            <stop stop-color="#FD4500" offset="100%"></stop>
        </linearGradient>
        <polygon id="path-2" points="0 0 30 0 30 26.5909091 0 26.5909091"></polygon>
    </defs>
    <g id="Page-1" stroke="none" stroke-width="1" fill="none" fill-rule="evenodd">
        <g id="Homepage" transform="translate(-30.000000, -20.000000)">
            <g id="sidebar" transform="translate(-1.000000, 0.000000)">
                <g id="Logo-2" transform="translate(31.000000, 20.000000)">
                    <g id="Logo">
                        <g id="Group-2" transform="translate(50.000000, 7.000000)">
                            <path d="M67.0655601,0.00104453308 C65.4080547,-0.0423790363 64.0409402,1.27344558 64.0008239,2.95104281 C63.9619726,4.57255127 65.3022526,5.96626691 66.93202,5.99937738 C68.5865439,6.03294018 69.9625128,4.70535501 69.9992861,3.0398802 C70.0351558,1.41203914 68.7148436,0.0443776367 67.0655601,0.00104453308" id="Fill-1" fill="#FEFEFE"></path>
                            <path d="M39.7781183,17.3891619 C39.7605684,16.5761214 39.6824712,15.7908105 39.4742122,15.027111 C39.1438838,13.8158889 38.6041264,12.7237759 37.5922763,11.9395505 C35.4202792,10.2564313 32.4688708,11.1577922 31.3177914,13.9082552 C30.3528385,16.2136627 30.3226136,18.5772925 31.2216568,20.917732 C31.6878996,22.1318159 32.4153436,23.1366941 33.7216423,23.5655658 C35.8531771,24.2653195 38.0233217,23.3038613 38.995392,21.2015413 C39.5556244,19.9898258 39.7191311,18.6883097 39.7781183,17.3891619 M39.4343349,9.86209829 C39.4343349,7.27899984 39.4339449,4.83060223 39.4349199,2.38220463 C39.4350174,2.15237439 39.4328724,1.92145865 39.4518848,1.69271392 C39.5374894,0.663954694 40.2721484,-0.0301740694 41.2337863,0.00100942355 C42.2717663,0.034561283 42.9516306,0.713196982 42.9873154,1.78448812 C43.0098378,2.45769631 42.9955053,3.13218737 42.9955053,3.80608634 C42.9957978,10.8580951 42.9962853,17.9101039 42.9950179,24.962014 C42.9948229,26.0745542 42.4901653,26.7560516 41.5481248,26.9323963 C40.4859649,27.1313391 39.6768163,26.5203992 39.4164925,25.3228938 C39.3871452,25.3227951 39.3454154,25.3098678 39.3304004,25.3246701 C37.4518769,27.1945942 35.1952503,27.2895262 32.8501915,26.6244099 C30.2842963,25.8966306 28.6277793,24.0986457 27.7677359,21.6036702 C26.4649471,17.8235598 26.7591032,14.1811107 29.1210294,10.8805946 C31.0149578,8.2343397 34.3720617,7.2475203 37.223338,8.35483034 C38.0335592,8.66962573 38.7198584,9.17319967 39.4343349,9.86209829" id="Fill-5" fill="#020202"></path>
                            <path d="M58.0386468,21.1206698 C56.9412902,23.604833 54.0208743,24.5703589 51.8740849,23.1792867 C51.0701392,22.6578692 50.5791651,21.8858631 50.2378305,21.0219351 C49.277399,18.5989874 49.3106522,16.1602421 50.3561728,13.7856744 C51.0574248,12.1950595 52.2458365,11.1552852 54.0815125,11.1366243 C55.9114182,11.117766 57.1368975,12.0746033 57.9564917,13.6553447 C58.1609013,14.0492958 58.316409,14.4628952 58.4367075,14.8895275 C58.665568,15.7011261 58.7721739,16.530497 58.7614155,17.374678 C58.7438108,18.6670156 58.5638522,19.9328922 58.0386468,21.1206698 M61.9987151,2.25050796 C61.9987151,2.02144362 61.9918689,1.7904046 61.9723082,1.56124153 C61.9106919,0.844526875 61.4607953,0.288650928 60.7898625,0.0891082479 C59.559493,-0.278085828 58.4504,0.526601378 58.4435537,1.82199968 C58.4298612,4.47006236 58.4397394,7.11812504 58.4397394,9.84517542 C58.1090654,9.56664504 57.8498858,9.32079582 57.5633212,9.11444045 C57.2728445,8.90719647 56.9667192,8.7136766 56.6469991,8.55668855 C53.8996956,7.20501151 50.3875678,8.06301541 48.3120773,10.5827231 C45.415232,14.0986631 45.2118005,20.0879056 47.8641367,23.8062516 C49.7077349,26.3911241 53.0046947,27.5670535 56.041497,26.7366953 C56.9745435,26.48196 57.7325215,25.9507677 58.4074642,25.2556759 C58.4572463,25.4758541 58.4826752,25.6555512 58.5394013,25.825276 C58.7682617,26.5115804 59.5145033,27.0189776 60.241282,26.99538 C61.0451299,26.9677343 61.7454038,26.462213 61.9234064,25.7315768 C61.995781,25.4333982 61.9967591,25.1125107 61.9967591,24.8014966 C62.0006712,17.2847308 62.0006712,9.76816241 61.9987151,2.25050796" id="Fill-7" fill="#020202"></path>
                            <path d="M17.5156264,16.1069261 L21.1644529,16.1069261 C22.3631615,16.1069261 22.3631615,16.1069261 22.1372295,14.9660093 C21.5186329,11.8432262 18.3158825,10.2784449 15.401411,11.699973 C13.6513269,12.5535972 13.0100863,14.0882148 12.7998934,15.8613912 C12.7629319,16.1731488 12.9851068,16.1054523 13.1574244,16.1056488 C14.6101922,16.1078104 16.0628585,16.1068278 17.5156264,16.1069261 L17.5156264,16.1069261 Z M18.6847862,18.9691416 C16.8576313,18.9691416 15.0302734,18.9808337 13.2034231,18.959611 C12.821725,18.9550914 12.7688214,19.0722092 12.8027366,19.4007681 C13.0601467,21.8952217 14.9756435,23.6518916 17.5610159,23.7915094 C19.4397543,23.8929068 21.0854528,23.3503523 22.5552798,22.2413679 C22.8210164,22.0409312 23.0965011,21.8471758 23.3885372,21.685844 C24.5019502,21.0708769 25.5697706,21.6731693 25.5871343,22.9216734 C25.5957655,23.5510837 25.3097204,24.0600356 24.8394773,24.4727975 C23.3045616,25.8202426 21.4859363,26.6066616 19.4506194,26.8806899 C17.0513743,27.2038449 14.7577334,26.9117379 12.7351093,25.4946313 C10.8474351,24.1721425 9.81109288,22.3182019 9.31262098,20.1630168 C8.54130452,16.8280067 9.19077004,13.7269376 11.3332142,11.0393181 C14.9529995,6.49864234 21.7987886,7.16027973 24.6886867,12.2584445 C25.5403233,13.7609332 25.9873131,15.3725813 26,17.0897534 C26.0088401,18.3108448 25.3913605,18.9433992 24.1152765,18.9595128 C22.3053838,18.9823075 20.4949835,18.9653097 18.6847862,18.9653097 L18.6847862,18.9691416 Z" id="Fill-9" fill="#020202"></path>
                            <path d="M74.7405012,18.5596642 C74.7405012,16.3496288 74.732465,14.1394957 74.7491255,11.9296554 C74.7515755,11.5899201 74.6725854,11.4763498 74.3236959,11.5039618 C73.9524618,11.5333301 73.5753476,11.5344033 73.2063676,11.4288337 C72.5164289,11.2314516 71.9632039,10.5321745 72.0019149,9.88782884 C72.0504262,9.08112832 72.6037493,8.47805431 73.404235,8.38087559 C73.6786424,8.34760456 73.9634381,8.31286999 74.2333375,8.35053163 C74.6917939,8.41453689 74.7616698,8.21969159 74.7501055,7.81595106 C74.7211947,6.80913652 74.7431473,5.80115115 74.7397172,4.79365363 C74.7373651,4.08920543 74.9683574,3.51432886 75.6473198,3.20591324 C76.354115,2.88491122 77.0451317,2.93701307 77.6872452,3.37773226 C78.232924,3.75239723 78.3259285,4.3288349 78.3285746,4.93073808 C78.3330827,5.92213671 78.3505272,6.9140232 78.3196563,7.90425101 C78.3077,8.28818503 78.4354955,8.37882664 78.787815,8.34848268 C79.0616345,8.32487098 79.3430981,8.3465313 79.6176035,8.37843636 C80.4712067,8.4774689 81.0161015,9.11547261 80.999637,9.9767142 C80.9840546,10.7865369 80.3937846,11.4253212 79.5736003,11.4996688 C79.2982129,11.5245489 79.0162592,11.5352815 78.7424398,11.5055229 C78.3869841,11.4669831 78.3216164,11.6065068 78.3224004,11.9366803 C78.3338667,16.3079668 78.3328867,20.6792533 78.3282806,25.0504422 C78.3269085,26.3756244 77.3557022,27.1975456 76.09725,26.9588919 C75.2544272,26.7989763 74.7544176,26.1731687 74.7465774,25.1895756 C74.731093,23.2560506 74.7410892,21.3221354 74.7405012,19.3884154 L74.7405012,18.5596642 Z" id="Fill-11" fill="#020202"></path>
                            <path d="M3.42000614,10.4224648 C3.97353019,9.74367373 4.45122771,9.19512385 5.03329373,8.76154483 C5.71877684,8.25092449 6.46724258,7.9273904 7.33453807,8.01398799 C8.47555111,8.12797366 9.21393201,9.19256238 8.94440062,10.3203013 C8.83889046,10.7617618 8.58382033,11.0706167 8.2085885,11.2953369 C7.62566622,11.6443872 6.97871478,11.8000461 6.34146761,11.9896939 C4.68441565,12.4827779 3.80332487,13.6749479 3.51495578,15.3878855 C3.43874871,15.8408726 3.424668,16.3001649 3.42533398,16.7608365 C3.42885416,19.5666376 3.43313545,22.3724387 3.42200408,25.1781413 C3.41781792,26.2324841 2.85763409,26.8831974 1.91841282,26.9894002 C1.04683603,27.0878199 0.244235678,26.4912916 0.0667045914,25.5985188 C0.0223693896,25.3755719 0.00324626607,25.1434628 0.00315112616,24.9154915 C-0.000369050811,19.9603167 -0.000939890319,15.0050434 0.00143860763,10.0497701 C0.00200944714,9.06094193 0.362399457,8.43475963 1.0739509,8.14984472 C2.19146438,7.70237461 3.36092425,8.48372323 3.41867418,9.71914267 C3.42761734,9.91016965 3.42000614,10.1018863 3.42000614,10.4224648" id="Fill-14" fill="#020202"></path>
                            <path d="M66.0067455,17.483143 C66.0069687,14.9342622 65.9973706,12.3853814 66.0109865,9.8366967 C66.0177945,8.56671703 67.2270411,7.73408329 68.5490093,8.07780328 C69.3501143,8.28613328 69.8300183,8.76896869 69.9630522,9.50189814 C69.9835876,9.61444536 69.9983196,9.72934548 69.9984312,9.84306915 C70.0001053,14.9407327 70.0006633,20.0383962 69.9989892,25.1360597 C69.9988776,25.8837928 69.6570297,26.467509 68.878469,26.8092682 C67.5630855,27.386906 66.0422361,26.5883894 66.0183525,25.2764496 C65.9848708,23.4469691 66.0076384,21.6167043 66.0066339,19.7868316 C66.0062991,19.0189027 66.0066339,18.2509738 66.0067455,17.483143" id="Fill-16" fill="#020202"></path>
                            <path d="M69.9996901,3.02073324 C69.9798814,4.11768658 69.0436755,5.02455594 67.9570477,4.99949264 C66.862125,4.9741812 65.9626889,4.02636686 66.0011919,2.93859512 C66.0399426,1.84908633 66.9252651,0.993584317 68.0076835,1 C69.1102821,1.00648819 70.0192511,1.92861886 69.9996901,3.02073324" id="Fill-38"></path>
                            <path d="M69.4597766,3.01454975 C69.4740522,2.21827004 68.8106886,1.54592843 68.0060146,1.54119777 C67.2160679,1.53651999 66.5699615,2.16028148 66.5416814,2.95466141 C66.5135819,3.74777482 67.1699885,4.43884284 67.9690607,4.45729786 C68.7620792,4.47557194 69.4453203,3.81435763 69.4597766,3.01454975 M68.0655565,0.00104446377 C69.71484,0.0443775679 71.0352426,1.41203909 70.9992826,3.03988016 C70.9625093,4.705355 69.5865403,6.03294018 67.9321067,5.99937738 C66.3023392,5.96635738 64.9620592,4.57264171 65.0008201,2.95113324 C65.0410267,1.27353599 66.4081413,-0.0423791061 68.0655565,0.00104446377" id="Fill-18" fill="url(#linearGradient-1)"></path>
                        </g>
                        <g id="Group">
                            <circle id="Oval-Copy" fill="url(#linearGradient-1)" cx="20" cy="20" r="20"></circle>
                            <g id="Page-1-Copy" transform="translate(5.000000, 6.666667)">
                                <mask id="mask-3" fill="white">
                                    <use xlink:href="#path-2"></use>
                                </mask>
                                <g id="Clip-2"></g>
                                <path d="M20.1394953,18.1555806 C18.8357899,18.1387951 17.8195091,17.1136513 17.8343333,15.8289463 C17.8487045,14.5610269 18.9082637,13.5227822 20.1691437,13.5407959 C21.4287883,13.5588096 22.4817178,14.6122022 22.47516,15.8477788 C22.4685408,17.1283898 21.4127288,18.1719567 20.1394953,18.1555806 M20.5075883,22.0269313 C19.8693244,22.638947 19.0885836,22.9988118 18.2534874,23.2489567 C17.1894397,23.5678812 16.0941378,23.6853797 14.9407332,23.6976618 C13.6485165,23.6743259 12.3341047,23.5134307 11.0810898,23.0151879 C10.4840043,22.7777345 9.93427377,22.4600791 9.474312,22.0060108 C9.30749865,21.841431 9.23424243,21.6424614 9.31330479,21.4086926 C9.39030824,21.1806964 9.55456854,21.0504654 9.78804958,21.0058406 C9.96264563,20.9727199 10.119988,21.0287671 10.2438935,21.1438092 C11.0699717,21.9098012 12.103918,22.1877855 13.172907,22.3757012 C14.0607526,22.5317245 14.9567927,22.5828998 15.8560859,22.4977441 C17.0572573,22.3835208 18.2341336,22.1791881 19.2796509,21.5208689 C19.4369521,21.421425 19.5753524,21.2997915 19.7137116,21.1777896 C19.9899769,20.9334173 20.3153267,20.9378798 20.5553963,21.1880247 C20.7859537,21.4279345 20.7707589,21.7746984 20.5075883,22.0269313 M7.51747692,15.8416378 C7.51669496,14.5958261 8.58897825,13.5383395 9.85027001,13.5407916 C11.1181503,13.5432523 12.161197,14.5888662 12.1591001,15.855189 C12.157038,17.1419 11.1272095,18.1576276 9.82679837,18.1551756 C8.55722977,18.1523053 7.51788913,17.1111949 7.51747692,15.8416378 M29.9568172,13.0286743 C29.7562376,11.7897815 29.0529532,10.9132918 27.8789183,10.4674115 C26.679394,10.012156 25.558932,10.2242674 24.5645169,11.0348434 C24.4475293,11.1302341 24.3787616,11.1216367 24.2676213,11.0430724 C23.7870704,10.7011803 23.2768299,10.40682 22.7501592,10.1411178 C20.6072398,9.05865763 18.3201962,8.53093785 15.9306187,8.4068889 C15.740416,8.39710418 15.6868431,8.36226403 15.7338275,8.1596098 C15.9022468,7.43660504 16.048018,6.70868744 16.2032603,5.98281686 C16.5112741,4.54417657 16.8234057,3.10676449 17.1231838,1.666896 C17.1614797,1.48307429 17.2294239,1.46219476 17.3966078,1.49822218 C18.8687326,1.81595944 20.3420926,2.12706438 21.8162763,2.43538538 C21.9558296,2.46441202 22.0180088,2.51272151 22.0365391,2.66870385 C22.160074,3.72741864 23.0800387,4.60886216 24.127615,4.68951445 C25.6783903,4.80865057 26.8659729,3.5886312 26.7032774,2.04354627 C26.6036259,1.09537015 25.8401799,0.259779705 24.8857078,0.0538912014 C23.9044286,-0.157810817 22.8716765,0.267189889 22.3791838,1.10069238 C22.2898269,1.2521713 22.2045466,1.28697051 22.0345213,1.25053369 C20.3202681,0.882931207 18.6047384,0.522206689 16.8884674,0.163979526 C16.4643308,0.0751391897 16.1896714,0.250363448 16.1007263,0.665497554 C15.5621139,3.17595351 15.0263841,5.68722828 14.4922602,8.19850304 C14.4655354,8.32337079 14.4321398,8.40033846 14.2740563,8.40406402 C13.4644494,8.42289653 12.6606899,8.50883011 11.8622013,8.64557054 C9.6385723,9.02676518 7.56112636,9.77674957 5.69455456,11.0589981 C5.59860909,11.1249528 5.54013589,11.1245025 5.44867885,11.0471254 C4.67909734,10.3965849 3.79170467,10.1460306 2.7898363,10.2831804 C1.25178509,10.4936542 0.00284682806,11.8937698 0,13.4368077 C-0.00209456962,14.7755538 0.5945792,15.7749461 1.76980828,16.4279021 C1.88803122,16.4938159 1.93122727,16.5548169 1.90985573,16.6989266 C1.8303404,17.2274652 1.83363467,17.7600978 1.90450255,18.2894961 C2.10088192,19.7612571 2.74120471,21.0324927 3.70770091,22.1464359 C5.06777945,23.7136285 6.79154485,24.7510953 8.7153545,25.4814284 C10.7363861,26.2486486 12.8394038,26.5782176 15.0806983,26.5909091 C16.2271025,26.5798962 17.4476689,26.4746388 18.6537818,26.2277691 C20.7522286,25.7987153 22.7151989,25.0462745 24.4632183,23.791415 C25.7401578,22.8748038 26.7909872,21.7591821 27.4729413,20.3311862 C28.0181421,19.1901815 28.23264,17.9889538 28.0803214,16.7312694 C28.0613794,16.5740588 28.0946926,16.4991382 28.2318576,16.4262645 C29.5030321,15.7519786 30.1837097,14.4308778 29.9568172,13.0286743" id="Fill-1" fill="#FFFFFF" mask="url(#mask-3)"></path>
                            </g>
                        </g>
                    </g>
                </g>
            </g>
        </g>
    </g>
</svg>