<svg width="30" height="30" viewBox="0 0 30 30" fill="none" xmlns="http://www.w3.org/2000/svg">
<path fill-rule="evenodd" clip-rule="evenodd" d="M20.625 0H1.875C0.84 0 0 0.84 0 1.875V15C0 16.035 0.84 16.875 1.875 16.875H5.625V22.5L11.25 16.875H20.625C21.66 16.875 22.5 16.035 22.5 15V1.875C22.5 0.84 21.66 0 20.625 0ZM26.25 7.5H28.125C29.16 7.5 30 8.34 30 9.375V22.5C30 23.535 29.16 24.375 28.125 24.375H24.375V30L18.75 24.375H9.375L12.8025 20.625H24.375C25.41 20.625 26.25 19.785 26.25 18.75V7.5Z" fill="#E4E5EC"/>
</svg>
